<svg width="256" height="256" viewBox="0 0 256 256" fill="none" xmlns="http://www.w3.org/2000/svg">
  <defs>
    <linearGradient id="pfGrad" x1="36" y1="30" x2="220" y2="228" gradientUnits="userSpaceOnUse">
      <stop offset="0" stop-color="#6C63FF"/>
      <stop offset="1" stop-color="#00D4FF"/>
    </linearGradient>
    <radialGradient id="pfGlow" cx="0" cy="0" r="1" gradientUnits="userSpaceOnUse" gradientTransform="translate(128 128) rotate(90) scale(110)">
      <stop stop-color="#6C63FF" stop-opacity="0.45"/>
      <stop offset="1" stop-color="#00D4FF" stop-opacity="0"/>
    </radialGradient>
  </defs>

  <rect x="20" y="20" width="216" height="216" rx="56" fill="#151B2F"/>
  <rect x="20" y="20" width="216" height="216" rx="56" fill="url(#pfGlow)"/>
  <rect x="20.75" y="20.75" width="214.5" height="214.5" rx="55.25" stroke="rgba(255,255,255,0.14)"/>

  <path d="M72 72H142C168.51 72 190 93.4903 190 120C190 146.51 168.51 168 142 168H112V194H72V72Z" fill="url(#pfGrad)"/>
  <path d="M112 107H141C148.18 107 154 112.82 154 120C154 127.18 148.18 133 141 133H112V107Z" fill="#0B1020" fill-opacity="0.65"/>

  <circle cx="178" cy="173" r="18" fill="url(#pfGrad)"/>
  <path d="M168.5 173H187.5" stroke="#0B1020" stroke-width="4" stroke-linecap="round"/>
  <path d="M178 163.5V182.5" stroke="#0B1020" stroke-width="4" stroke-linecap="round"/>
</svg>
